<mxfile host="app.diagrams.net" agent="Mozilla/5.0 (Windows NT 10.0; Win64; x64) AppleWebKit/537.36 (KHTML, like Gecko) Chrome/131.0.0.0 Safari/537.36" version="25.0.3">
  <diagram name="หน้า-1" id="uFgufKT6krchcm-q_aM_">
    <mxGraphModel dx="1050" dy="530" grid="1" gridSize="10" guides="1" tooltips="1" connect="1" arrows="1" fold="1" page="1" pageScale="1" pageWidth="827" pageHeight="1169" math="0" shadow="0">
      <root>
        <mxCell id="0" />
        <mxCell id="1" parent="0" />
        <mxCell id="U8AcKcACCjuobLFnIIkW-9" value="" style="edgeStyle=orthogonalEdgeStyle;rounded=0;orthogonalLoop=1;jettySize=auto;html=1;" edge="1" parent="1" source="U8AcKcACCjuobLFnIIkW-1" target="U8AcKcACCjuobLFnIIkW-8">
          <mxGeometry relative="1" as="geometry" />
        </mxCell>
        <mxCell id="U8AcKcACCjuobLFnIIkW-1" value="Start" style="ellipse;whiteSpace=wrap;html=1;" vertex="1" parent="1">
          <mxGeometry x="354" y="10" width="120" height="80" as="geometry" />
        </mxCell>
        <mxCell id="U8AcKcACCjuobLFnIIkW-5" value="" style="edgeStyle=orthogonalEdgeStyle;rounded=0;orthogonalLoop=1;jettySize=auto;html=1;" edge="1" parent="1" source="U8AcKcACCjuobLFnIIkW-2" target="U8AcKcACCjuobLFnIIkW-4">
          <mxGeometry relative="1" as="geometry" />
        </mxCell>
        <mxCell id="U8AcKcACCjuobLFnIIkW-2" value="Input Name room1" style="shape=parallelogram;perimeter=parallelogramPerimeter;whiteSpace=wrap;html=1;fixedSize=1;" vertex="1" parent="1">
          <mxGeometry x="351" y="330" width="126" height="60" as="geometry" />
        </mxCell>
        <mxCell id="U8AcKcACCjuobLFnIIkW-7" value="F" style="edgeStyle=orthogonalEdgeStyle;rounded=0;orthogonalLoop=1;jettySize=auto;html=1;" edge="1" parent="1" source="U8AcKcACCjuobLFnIIkW-4" target="U8AcKcACCjuobLFnIIkW-6">
          <mxGeometry relative="1" as="geometry" />
        </mxCell>
        <mxCell id="U8AcKcACCjuobLFnIIkW-20" value="T" style="edgeStyle=orthogonalEdgeStyle;rounded=0;orthogonalLoop=1;jettySize=auto;html=1;" edge="1" parent="1" source="U8AcKcACCjuobLFnIIkW-4" target="U8AcKcACCjuobLFnIIkW-19">
          <mxGeometry relative="1" as="geometry" />
        </mxCell>
        <mxCell id="U8AcKcACCjuobLFnIIkW-4" value="Name = -1" style="rhombus;whiteSpace=wrap;html=1;" vertex="1" parent="1">
          <mxGeometry x="374" y="460" width="80" height="80" as="geometry" />
        </mxCell>
        <mxCell id="U8AcKcACCjuobLFnIIkW-6" value="Input height room1" style="shape=parallelogram;perimeter=parallelogramPerimeter;whiteSpace=wrap;html=1;fixedSize=1;" vertex="1" parent="1">
          <mxGeometry x="351" y="630" width="126" height="60" as="geometry" />
        </mxCell>
        <mxCell id="U8AcKcACCjuobLFnIIkW-10" value="" style="edgeStyle=orthogonalEdgeStyle;rounded=0;orthogonalLoop=1;jettySize=auto;html=1;" edge="1" parent="1" source="U8AcKcACCjuobLFnIIkW-8" target="U8AcKcACCjuobLFnIIkW-2">
          <mxGeometry relative="1" as="geometry" />
        </mxCell>
        <mxCell id="U8AcKcACCjuobLFnIIkW-8" value="" style="shape=waypoint;sketch=0;size=6;pointerEvents=1;points=[];fillColor=default;resizable=0;rotatable=0;perimeter=centerPerimeter;snapToPoint=1;" vertex="1" parent="1">
          <mxGeometry x="404" y="200" width="20" height="20" as="geometry" />
        </mxCell>
        <mxCell id="U8AcKcACCjuobLFnIIkW-11" style="edgeStyle=orthogonalEdgeStyle;rounded=0;orthogonalLoop=1;jettySize=auto;html=1;exitX=1;exitY=0.5;exitDx=0;exitDy=0;entryX=1.1;entryY=0.74;entryDx=0;entryDy=0;entryPerimeter=0;" edge="1" parent="1" source="U8AcKcACCjuobLFnIIkW-6" target="U8AcKcACCjuobLFnIIkW-8">
          <mxGeometry relative="1" as="geometry">
            <Array as="points">
              <mxPoint x="490" y="660" />
              <mxPoint x="490" y="210" />
            </Array>
          </mxGeometry>
        </mxCell>
        <mxCell id="U8AcKcACCjuobLFnIIkW-16" value="" style="edgeStyle=orthogonalEdgeStyle;rounded=0;orthogonalLoop=1;jettySize=auto;html=1;" edge="1" parent="1" source="U8AcKcACCjuobLFnIIkW-13" target="U8AcKcACCjuobLFnIIkW-15">
          <mxGeometry relative="1" as="geometry" />
        </mxCell>
        <mxCell id="U8AcKcACCjuobLFnIIkW-13" value="Input Name room2" style="shape=parallelogram;perimeter=parallelogramPerimeter;whiteSpace=wrap;html=1;fixedSize=1;" vertex="1" parent="1">
          <mxGeometry x="192" y="630" width="124" height="60" as="geometry" />
        </mxCell>
        <mxCell id="U8AcKcACCjuobLFnIIkW-18" value="F" style="edgeStyle=orthogonalEdgeStyle;rounded=0;orthogonalLoop=1;jettySize=auto;html=1;" edge="1" parent="1" source="U8AcKcACCjuobLFnIIkW-15" target="U8AcKcACCjuobLFnIIkW-17">
          <mxGeometry relative="1" as="geometry" />
        </mxCell>
        <mxCell id="U8AcKcACCjuobLFnIIkW-27" value="T" style="edgeStyle=orthogonalEdgeStyle;rounded=0;orthogonalLoop=1;jettySize=auto;html=1;" edge="1" parent="1" source="U8AcKcACCjuobLFnIIkW-15" target="U8AcKcACCjuobLFnIIkW-26">
          <mxGeometry relative="1" as="geometry" />
        </mxCell>
        <mxCell id="U8AcKcACCjuobLFnIIkW-15" value="Name = -1" style="rhombus;whiteSpace=wrap;html=1;" vertex="1" parent="1">
          <mxGeometry x="214" y="760" width="80" height="80" as="geometry" />
        </mxCell>
        <mxCell id="U8AcKcACCjuobLFnIIkW-17" value="Input height room2" style="shape=parallelogram;perimeter=parallelogramPerimeter;whiteSpace=wrap;html=1;fixedSize=1;" vertex="1" parent="1">
          <mxGeometry x="190" y="920" width="128" height="60" as="geometry" />
        </mxCell>
        <mxCell id="U8AcKcACCjuobLFnIIkW-21" value="" style="edgeStyle=orthogonalEdgeStyle;rounded=0;orthogonalLoop=1;jettySize=auto;html=1;" edge="1" parent="1" source="U8AcKcACCjuobLFnIIkW-19" target="U8AcKcACCjuobLFnIIkW-13">
          <mxGeometry relative="1" as="geometry" />
        </mxCell>
        <mxCell id="U8AcKcACCjuobLFnIIkW-19" value="" style="shape=waypoint;sketch=0;size=6;pointerEvents=1;points=[];fillColor=default;resizable=0;rotatable=0;perimeter=centerPerimeter;snapToPoint=1;" vertex="1" parent="1">
          <mxGeometry x="244" y="490" width="20" height="20" as="geometry" />
        </mxCell>
        <mxCell id="U8AcKcACCjuobLFnIIkW-22" style="edgeStyle=orthogonalEdgeStyle;rounded=0;orthogonalLoop=1;jettySize=auto;html=1;exitX=0;exitY=0.5;exitDx=0;exitDy=0;entryX=0.18;entryY=0.52;entryDx=0;entryDy=0;entryPerimeter=0;" edge="1" parent="1" source="U8AcKcACCjuobLFnIIkW-17" target="U8AcKcACCjuobLFnIIkW-19">
          <mxGeometry relative="1" as="geometry">
            <Array as="points">
              <mxPoint x="180" y="950" />
              <mxPoint x="180" y="500" />
            </Array>
          </mxGeometry>
        </mxCell>
        <mxCell id="U8AcKcACCjuobLFnIIkW-29" value="" style="edgeStyle=orthogonalEdgeStyle;rounded=0;orthogonalLoop=1;jettySize=auto;html=1;" edge="1" parent="1" source="U8AcKcACCjuobLFnIIkW-26" target="U8AcKcACCjuobLFnIIkW-28">
          <mxGeometry relative="1" as="geometry" />
        </mxCell>
        <mxCell id="U8AcKcACCjuobLFnIIkW-26" value="Output name of lowest height person to&amp;nbsp;&lt;div&gt;highest height person&lt;/div&gt;&lt;div&gt;of room1&lt;/div&gt;" style="shape=parallelogram;perimeter=parallelogramPerimeter;whiteSpace=wrap;html=1;fixedSize=1;" vertex="1" parent="1">
          <mxGeometry x="336" y="770" width="156" height="60" as="geometry" />
        </mxCell>
        <mxCell id="U8AcKcACCjuobLFnIIkW-31" value="" style="edgeStyle=orthogonalEdgeStyle;rounded=0;orthogonalLoop=1;jettySize=auto;html=1;" edge="1" parent="1" source="U8AcKcACCjuobLFnIIkW-28" target="U8AcKcACCjuobLFnIIkW-30">
          <mxGeometry relative="1" as="geometry" />
        </mxCell>
        <mxCell id="U8AcKcACCjuobLFnIIkW-28" value="Output name of lowest height person to&amp;nbsp;&lt;div&gt;highest height person&lt;/div&gt;&lt;div&gt;of room2&lt;/div&gt;" style="shape=parallelogram;perimeter=parallelogramPerimeter;whiteSpace=wrap;html=1;fixedSize=1;" vertex="1" parent="1">
          <mxGeometry x="336" y="920" width="156" height="60" as="geometry" />
        </mxCell>
        <mxCell id="U8AcKcACCjuobLFnIIkW-33" value="" style="edgeStyle=orthogonalEdgeStyle;rounded=0;orthogonalLoop=1;jettySize=auto;html=1;" edge="1" parent="1" source="U8AcKcACCjuobLFnIIkW-30" target="U8AcKcACCjuobLFnIIkW-32">
          <mxGeometry relative="1" as="geometry" />
        </mxCell>
        <mxCell id="U8AcKcACCjuobLFnIIkW-30" value="Output highest high person to lowest high person" style="shape=parallelogram;perimeter=parallelogramPerimeter;whiteSpace=wrap;html=1;fixedSize=1;" vertex="1" parent="1">
          <mxGeometry x="346" y="1070" width="136" height="60" as="geometry" />
        </mxCell>
        <mxCell id="U8AcKcACCjuobLFnIIkW-32" value="End" style="ellipse;whiteSpace=wrap;html=1;" vertex="1" parent="1">
          <mxGeometry x="354" y="1220" width="120" height="80" as="geometry" />
        </mxCell>
      </root>
    </mxGraphModel>
  </diagram>
</mxfile>
